<?xml version="1.0" standalone="no"?>
<!DOCTYPE svg PUBLIC "-//W3C//DTD SVG 20010904//EN"
 "http://www.w3.org/TR/2001/REC-SVG-20010904/DTD/svg10.dtd">
<svg version="1.0" xmlns="http://www.w3.org/2000/svg"
 width="700.000000pt" height="700.000000pt" viewBox="0 0 700.000000 700.000000"
 preserveAspectRatio="xMidYMid meet">
<metadata>
Created by potrace 1.14, written by Peter Selinger 2001-2017
</metadata>
<g transform="translate(0.000000,700.000000) scale(0.100000,-0.100000)"
fill="#000000" stroke="none">
<path d="M3128 6995 c-2 -1 -64 -6 -138 -10 -74 -4 -148 -9 -165 -10 -16 -1
-66 -5 -110 -9 -44 -4 -96 -8 -115 -11 -19 -2 -60 -7 -90 -10 -146 -17 -182
-22 -300 -41 -52 -9 -108 -18 -125 -20 -104 -16 -357 -72 -515 -114 -683 -181
-1152 -436 -1405 -763 -61 -81 -122 -206 -144 -302 -25 -109 -28 -432 -5 -485
69 -155 156 -248 358 -382 278 -184 727 -370 1209 -502 158 -43 471 -115 592
-136 57 -10 75 -13 135 -25 14 -2 45 -7 70 -10 25 -3 56 -8 70 -10 14 -3 43
-7 65 -10 22 -3 56 -7 75 -9 154 -20 183 -24 280 -31 47 -4 96 -8 109 -10 142
-23 814 -22 1021 0 19 2 73 7 120 10 47 4 93 9 102 10 9 2 48 7 85 10 37 4 75
8 83 10 8 2 39 7 69 10 30 4 63 9 75 11 11 2 38 6 61 9 68 10 318 55 355 65
19 5 49 11 65 14 53 9 81 15 262 62 98 24 214 56 258 70 44 14 87 27 95 29 41
9 300 103 417 150 141 58 309 137 408 194 33 18 69 39 80 45 11 6 61 39 112
74 149 103 261 228 308 342 27 68 28 375 1 499 -47 213 -235 446 -502 623
-282 186 -646 337 -1080 448 -136 35 -408 93 -484 105 -26 3 -205 32 -250 39
-14 2 -56 7 -95 11 -38 4 -79 9 -90 11 -10 2 -49 6 -85 10 -36 3 -75 7 -86 9
-12 2 -71 6 -130 10 -60 4 -125 9 -144 11 -40 5 -877 14 -882 9z"/>
<path d="M63 4355 c-16 -7 -32 -21 -35 -31 -2 -11 -4 -134 -3 -274 1 -247 1
-256 25 -305 111 -234 528 -498 1114 -706 308 -110 881 -258 1101 -285 22 -3
51 -7 65 -10 29 -7 40 -9 135 -23 88 -13 125 -18 200 -27 33 -3 67 -8 76 -9 9
-2 52 -6 95 -10 43 -4 90 -9 104 -10 216 -26 984 -26 1141 0 13 2 60 7 104 10
44 3 94 8 110 10 17 2 82 11 145 20 132 18 164 22 240 35 30 5 71 12 90 15 19
3 78 14 130 25 52 11 106 21 120 24 89 15 424 101 560 143 47 15 90 28 95 29
33 8 258 89 360 129 116 45 444 201 495 235 14 10 57 38 96 63 160 102 292
229 347 330 21 40 22 55 25 313 3 252 2 272 -16 293 -33 42 -61 31 -235 -86
-232 -158 -397 -249 -582 -323 -160 -63 -552 -185 -755 -234 -112 -27 -373
-84 -412 -90 -21 -3 -57 -10 -80 -15 -24 -5 -59 -12 -78 -15 -19 -3 -46 -8
-60 -10 -25 -4 -117 -18 -135 -21 -40 -5 -133 -18 -147 -21 -9 -1 -48 -6 -85
-9 -37 -4 -76 -9 -86 -11 -10 -2 -50 -6 -90 -9 -40 -4 -92 -8 -117 -10 -52 -5
-213 -15 -309 -21 -93 -5 -487 -4 -605 1 -171 8 -331 21 -511 41 -208 23 -219
25 -240 29 -11 2 -42 7 -70 10 -27 4 -61 9 -75 11 -14 3 -66 11 -116 19 -50 8
-98 17 -105 19 -8 3 -32 8 -53 11 -167 24 -556 122 -861 217 -393 122 -573
209 -915 442 -74 51 -142 95 -151 98 -8 3 -29 0 -46 -7z"/>
<path d="M43 3036 c-17 -21 -19 -44 -18 -278 l1 -254 28 -58 c143 -292 803
-639 1617 -850 155 -40 322 -80 387 -92 12 -2 34 -6 50 -9 211 -40 463 -80
567 -90 33 -4 71 -8 85 -10 24 -4 111 -13 201 -20 314 -26 850 -26 1119 0 25
3 68 7 95 10 95 9 170 17 185 20 8 2 44 6 80 10 36 4 67 8 70 10 3 2 30 6 60
10 51 6 131 18 190 30 14 3 41 8 60 11 19 4 44 8 55 11 83 16 124 24 150 29
65 11 368 88 510 129 199 58 434 141 617 219 21 9 40 17 43 17 10 2 264 131
315 160 205 119 385 273 451 385 l34 59 3 267 c3 258 3 267 -17 287 -12 12
-32 21 -46 21 -14 0 -86 -42 -177 -103 -352 -239 -490 -305 -916 -441 -119
-38 -411 -119 -470 -131 -10 -1 -35 -8 -57 -14 -41 -10 -296 -65 -350 -75
-118 -20 -152 -26 -170 -30 -33 -6 -98 -16 -131 -20 -17 -2 -66 -9 -110 -15
-107 -16 -129 -19 -199 -26 -33 -4 -69 -8 -81 -10 -11 -2 -65 -6 -120 -10 -54
-4 -106 -9 -115 -10 -122 -23 -886 -23 -1064 0 -16 2 -66 7 -110 10 -44 4 -93
8 -110 10 -16 2 -57 6 -90 10 -33 3 -71 8 -85 10 -14 2 -47 6 -75 10 -27 3
-61 8 -75 10 -14 2 -56 9 -95 15 -616 96 -1286 279 -1630 445 -129 63 -314
174 -474 286 -125 86 -157 95 -188 55z"/>
<path d="M21 1689 c-22 -21 -22 -22 -19 -288 l3 -266 29 -50 c145 -250 577
-508 1209 -719 166 -56 322 -103 437 -131 150 -37 362 -84 421 -95 35 -6 84
-15 109 -20 42 -9 185 -33 275 -45 22 -3 51 -8 65 -10 14 -2 52 -7 85 -10 33
-4 71 -8 85 -10 183 -26 458 -40 780 -40 287 1 450 8 660 30 25 2 70 7 100 10
58 6 119 14 160 20 14 3 48 7 75 10 28 3 75 10 105 15 78 14 100 18 140 24 88
13 397 81 557 122 581 149 1085 361 1393 588 64 46 61 44 134 115 72 70 126
149 140 205 7 28 11 137 11 287 0 240 -1 241 -24 260 -13 10 -31 19 -41 19
-10 0 -98 -54 -196 -119 -285 -190 -454 -277 -701 -362 -110 -38 -389 -126
-423 -134 -8 -2 -60 -15 -115 -29 -55 -15 -107 -28 -115 -30 -33 -9 -246 -57
-268 -61 -12 -2 -30 -6 -40 -9 -9 -3 -34 -7 -54 -10 -21 -3 -57 -10 -80 -15
-24 -5 -61 -12 -83 -15 -22 -4 -65 -11 -95 -16 -103 -17 -123 -20 -305 -44
-117 -16 -190 -24 -295 -32 -36 -3 -82 -7 -103 -9 -224 -24 -927 -24 -1102 0
-16 2 -64 6 -105 10 -41 3 -91 7 -110 10 -286 34 -313 37 -450 60 -47 8 -103
17 -125 20 -22 4 -47 8 -56 11 -9 2 -32 7 -50 9 -19 3 -43 7 -54 9 -11 2 -76
16 -145 31 -137 29 -449 107 -492 124 -16 6 -28 9 -28 6 0 -2 -19 3 -42 11
-24 9 -50 17 -58 19 -41 9 -387 128 -437 151 -212 96 -279 135 -527 301 -93
62 -179 113 -191 113 -12 0 -31 -9 -44 -21z"/>
</g>
</svg>
