<svg viewBox="0 0 20 20" fill="none" xmlns="http://www.w3.org/2000/svg">
<path d="M19.9303 4.09211C19.8915 2.89491 18.7719 1.82328 16.7683 1.06773C14.9353 0.379292 12.5206 0 9.96516 0C7.40967 0 4.99503 0.379292 3.16633 1.06773C1.16468 1.82155 0.0450348 2.89102 0.00431185 4.08518L0 4.84939C0 5.12693 0.249129 5.56294 0.700915 5.92015C1.23415 6.34144 2.02561 6.75711 2.99003 7.12081C5.04199 7.89585 7.64969 8.35654 9.96516 8.35654C12.2806 8.35654 14.8883 7.89412 16.9403 7.11908C17.9047 6.75537 18.6962 6.33971 19.2294 5.91842C19.6812 5.56338 19.9303 5.12736 19.9303 4.84939V4.09211Z" fill="black"/>
<path d="M17.6007 8.77771C15.3715 9.619 12.5429 10.12 10.0348 10.12C7.52679 10.12 4.69821 9.619 2.46851 8.77771C1.6507 8.46813 0.950261 7.96414 0.377744 7.56537C0.349215 7.54564 0.315127 7.53356 0.279369 7.53051C0.24361 7.52745 0.20762 7.53353 0.175504 7.54807C0.143387 7.5626 0.116437 7.585 0.0977276 7.61271C0.0790178 7.64042 0.0693013 7.67233 0.0696865 7.70478V9.0375C0.0696865 9.31504 0.318815 9.66446 0.770601 10.0217C1.30383 10.4434 2.0953 10.8586 3.05971 11.2228C5.11167 11.9965 7.71938 12.4581 10.0348 12.4581C12.3503 12.4581 14.958 11.9956 17.01 11.221C17.9744 10.8569 18.7659 10.4417 19.2991 10.0199C19.7509 9.66403 20 9.31504 20 9.0375V7.70478C20 7.67247 19.99 7.6408 19.9712 7.61334C19.9523 7.58589 19.9254 7.56375 19.8933 7.54942C19.8613 7.5351 19.8254 7.52916 19.7898 7.53229C19.7543 7.53541 19.7203 7.54747 19.6919 7.5671C19.1194 7.96414 18.419 8.46813 17.6007 8.77771Z" fill="black"/>
<path d="M17.6007 12.5014C15.371 13.3418 12.5429 13.8436 10.0348 13.8436C7.52679 13.8436 4.69821 13.3418 2.46851 12.5014C1.6507 12.1909 0.950261 11.6869 0.377744 11.289C0.349279 11.2693 0.315281 11.2573 0.279609 11.2542C0.243937 11.2511 0.20802 11.2571 0.175938 11.2715C0.143856 11.2859 0.116893 11.3082 0.0981117 11.3358C0.0793301 11.3634 0.0694823 11.3952 0.0696863 11.4276V12.7178C0.0696863 12.9954 0.318815 13.3444 0.770122 13.7011C1.30335 14.1229 2.0953 14.5381 3.05971 14.9022C5.11167 15.676 7.7189 16.1384 10.0348 16.1384C12.3508 16.1384 14.958 15.676 17.01 14.9014C17.9744 14.5372 18.7659 14.122 19.2991 13.7003C19.7509 13.3431 20 12.9937 20 12.7178V11.4276C20 11.3952 19.99 11.3636 19.9712 11.3361C19.9523 11.3087 19.9254 11.2865 19.8933 11.2722C19.8613 11.2579 19.8254 11.2519 19.7898 11.2551C19.7542 11.2582 19.7203 11.2702 19.6919 11.2899C19.1194 11.6869 18.419 12.1909 17.6007 12.5014Z" fill="black"/>
<path d="M17.531 16.363C15.3013 17.2034 12.4732 17.7052 9.96516 17.7052C7.4571 17.7052 4.62853 17.2034 2.39883 16.363C1.58101 16.0525 0.880578 15.5485 0.308061 15.1506C0.279596 15.1309 0.245598 15.1189 0.209925 15.1158C0.174253 15.1127 0.138337 15.1187 0.106255 15.1331C0.0741727 15.1476 0.04721 15.1698 0.0284285 15.1974C0.00964692 15.225 -0.000200896 15.2568 3.10633e-06 15.2892V16.5794C3.10633e-06 16.857 0.249132 17.206 0.700439 17.5627C1.23367 17.9845 2.02561 18.3997 2.99003 18.7638C5.04199 19.5376 7.64922 20 9.96516 20C12.2811 20 14.8883 19.5376 16.9403 18.763C17.9047 18.3988 18.6962 17.9836 19.2294 17.5619C19.6812 17.2047 19.9303 16.8553 19.9303 16.5794V15.2892C19.9303 15.2569 19.9204 15.2252 19.9015 15.1977C19.8827 15.1703 19.8557 15.1481 19.8236 15.1338C19.7916 15.1195 19.7557 15.1135 19.7202 15.1167C19.6846 15.1198 19.6507 15.1318 19.6223 15.1515C19.0497 15.5485 18.3493 16.0525 17.531 16.363Z" fill="black"/>
</svg>
