<svg viewBox="0 0 20 20" fill="none" xmlns="http://www.w3.org/2000/svg" width="180" height="180" class="application-logo logo"><path d="M19.93 4.092c-.038-1.197-1.158-2.269-3.162-3.024C14.935.379 12.521 0 9.965 0 7.41 0 4.995.38 3.166 1.068 1.165 1.822.045 2.89.004 4.085L0 4.85c0 .278.25.714.7 1.071.534.421 1.326.837 2.29 1.2 2.052.776 4.66 1.237 6.975 1.237 2.316 0 4.923-.463 6.975-1.238.965-.364 1.756-.78 2.29-1.2.451-.356.7-.792.7-1.07v-.757Z" fill="#95CDF9"></path><path d="M17.6 8.778c-2.229.841-5.057 1.342-7.565 1.342s-5.337-.501-7.566-1.342C1.65 8.468.95 7.964.378 7.565a.21.21 0 0 0-.202-.017.186.186 0 0 0-.078.065.16.16 0 0 0-.028.092v1.332c0 .278.249.627.7.985.534.421 1.325.837 2.29 1.2 2.052.774 4.66 1.236 6.975 1.236 2.315 0 4.923-.462 6.975-1.237.964-.364 1.756-.78 2.29-1.201.45-.356.7-.705.7-.982V7.704a.162.162 0 0 0-.029-.092.186.186 0 0 0-.078-.064.21.21 0 0 0-.201.018c-.573.397-1.273.901-2.091 1.21Z" fill="#6EBBF7"></path><path d="M17.6 12.501c-2.229.84-5.057 1.343-7.565 1.343s-5.337-.502-7.566-1.343C1.65 12.191.95 11.687.378 11.29a.21.21 0 0 0-.202-.018.186.186 0 0 0-.078.065.161.161 0 0 0-.028.092v1.29c0 .277.249.626.7.983.533.422 1.325.837 2.29 1.201 2.052.774 4.659 1.236 6.975 1.236s4.923-.462 6.975-1.237c.964-.364 1.756-.779 2.29-1.2.45-.358.7-.707.7-.983v-1.29a.162.162 0 0 0-.029-.092.186.186 0 0 0-.078-.064.209.209 0 0 0-.201.018c-.573.397-1.273.9-2.091 1.211Z" fill="#48A8F5"></path><path d="M17.531 16.363c-2.23.84-5.058 1.342-7.566 1.342S4.63 17.203 2.4 16.363c-.818-.31-1.518-.814-2.09-1.212a.21.21 0 0 0-.202-.018.186.186 0 0 0-.079.064.161.161 0 0 0-.028.092v1.29c0 .278.25.627.7.984.534.422 1.326.837 2.29 1.2C5.042 19.539 7.65 20 9.965 20c2.316 0 4.923-.462 6.975-1.237.965-.364 1.756-.78 2.29-1.201.451-.357.7-.707.7-.983v-1.29a.161.161 0 0 0-.029-.091.186.186 0 0 0-.077-.064.209.209 0 0 0-.202.018c-.572.397-1.273.9-2.091 1.211Z" fill="#48A8F5"></path></svg>
